<?xml version="1.0" standalone="no"?>
<!DOCTYPE svg PUBLIC "-//W3C//DTD SVG 20010904//EN"
 "http://www.w3.org/TR/2001/REC-SVG-20010904/DTD/svg10.dtd">
<svg version="1.0" xmlns="http://www.w3.org/2000/svg"
 width="250.000000pt" height="444.000000pt" viewBox="0 0 250.000000 444.000000"
 preserveAspectRatio="xMidYMid meet">
<metadata>
Created by potrace 1.16, written by Peter Selinger 2001-2019
</metadata>
<g transform="translate(0.000000,444.000000) scale(0.100000,-0.100000)"
fill="#000000" stroke="none">
<path d="M937 3713 c-56 -89 -61 -104 -43 -134 9 -15 16 -30 16 -33 0 -3 -54
-6 -120 -6 l-120 0 0 -1310 0 -1310 -135 0 c-83 0 -135 -4 -135 -10 0 -7 302
-10 885 -10 583 0 885 3 885 10 0 6 -52 10 -135 10 l-135 0 0 1310 0 1310
-115 0 c-63 0 -115 3 -115 6 0 3 7 19 17 34 16 28 16 30 -26 99 l-42 71 -329
0 -330 0 -23 -37z m6 -223 l18 -30 329 0 329 0 18 30 17 30 114 0 113 0 -3
-42 -3 -43 -587 -3 c-630 -2 -590 -5 -590 43 0 46 -3 45 115 45 l113 0 17 -30z
m935 -92 c-4 -10 -60 -14 -219 -18 l-214 -6 218 -2 217 -2 0 -180 0 -180 -40
0 c-25 0 -41 5 -42 13 0 6 -2 18 -2 26 -1 8 -8 17 -16 20 -12 5 -15 27 -15
113 0 99 -2 108 -24 132 -34 36 -98 36 -132 0 -22 -23 -24 -35 -27 -135 -3
-86 -7 -109 -18 -109 -9 0 -14 -11 -14 -30 l0 -30 -70 0 -70 0 0 30 c0 19 -5
30 -14 30 -11 0 -15 23 -18 109 -3 100 -5 112 -27 135 -33 35 -92 36 -126 1
-26 -25 -31 -61 -25 -192 1 -43 -1 -53 -14 -53 -10 0 -19 -12 -22 -30 -6 -30
-7 -30 -75 -30 l-69 0 0 30 c0 20 -5 30 -15 30 -12 0 -15 18 -15 99 0 55 -4
111 -10 126 -13 34 -63 56 -104 44 -55 -16 -66 -41 -66 -161 0 -89 -3 -108
-15 -108 -10 0 -15 -10 -15 -31 0 -29 -1 -30 -42 -27 l-43 3 -3 178 -2 177 50
0 c27 0 50 3 50 8 0 4 -21 7 -47 7 -28 0 -48 5 -50 13 -4 9 119 12 592 12 473
0 596 -3 593 -12z m2 -1443 l0 -1035 -164 0 -165 0 -3 263 c-4 288 -6 299 -68
371 -43 49 -101 77 -169 83 -110 10 -203 -40 -253 -136 l-28 -53 0 -264 0
-264 -170 0 -170 0 0 1035 0 1035 595 0 595 0 0 -1035z m-500 -356 c25 -11 58
-32 73 -47 32 -30 69 -96 60 -106 -11 -11 -453 -7 -453 4 0 6 9 28 20 50 52
102 192 148 300 99z m-100 -429 l0 -250 -115 0 -115 0 0 250 0 250 115 0 115
0 0 -250z m248 -2 l2 -248 -115 0 -115 0 0 250 0 251 113 -3 112 -3 3 -247z"/>
<path d="M872 2902 l-93 -3 3 -127 3 -127 100 0 100 0 0 129 c0 79 -4 130 -10
130 -5 1 -52 0 -103 -2z"/>
<path d="M1049 2895 c-1 -23 -1 -134 0 -193 l1 -63 103 3 102 3 3 127 3 127
-106 3 c-65 2 -105 -1 -106 -7z"/>
<path d="M1317 2901 c-2 -3 -3 -62 -2 -131 l0 -125 105 0 105 0 3 128 3 127
-83 1 c-46 0 -93 2 -106 3 -13 2 -24 0 -25 -3z"/>
<path d="M1682 2902 l-103 -3 3 -127 3 -127 104 0 104 0 -1 128 c0 71 -2 130
-4 130 -2 1 -49 1 -106 -1z"/>
<path d="M784 2587 c-2 -7 -3 -67 -2 -133 l3 -119 100 0 100 0 0 130 0 130
-98 3 c-74 2 -99 0 -103 -11z"/>
<path d="M1057 2593 c-4 -3 -7 -64 -7 -135 l0 -128 105 0 105 0 0 129 c0 108
-3 130 -16 135 -21 8 -179 8 -187 -1z"/>
<path d="M1325 2594 c-6 -2 -10 -56 -10 -132 l1 -127 104 0 105 0 0 130 0 130
-95 1 c-52 1 -99 0 -105 -2z"/>
<path d="M1592 2592 c-9 -7 -12 -40 -10 -133 l3 -124 103 -3 102 -3 0 46 c2
162 1 205 -5 214 -7 13 -174 15 -193 3z"/>
<path d="M784 2277 c-2 -7 -3 -67 -2 -133 l3 -119 123 -2 122 -2 0 134 0 135
-120 0 c-90 0 -122 -3 -126 -13z"/>
<path d="M1230 2283 c-14 -3 -37 -14 -53 -25 -54 -38 -57 -56 -57 -311 l0
-234 168 1 167 1 0 237 c0 223 -1 238 -21 264 -35 47 -67 65 -125 69 -30 2
-65 1 -79 -2z"/>
<path d="M1544 2277 c-2 -7 -3 -67 -2 -133 l3 -119 123 -3 122 -3 0 135 0 136
-120 0 c-90 0 -122 -3 -126 -13z"/>
<path d="M784 1967 c-2 -7 -3 -67 -2 -133 l3 -119 105 -1 c58 -1 113 0 123 3
15 4 17 19 17 133 l0 128 -120 1 c-92 1 -122 -2 -126 -12z"/>
<path d="M1547 1973 c-4 -3 -7 -62 -7 -129 0 -108 2 -123 18 -128 9 -2 64 -4
122 -3 l105 0 5 61 c3 34 4 94 2 134 l-4 72 -117 0 c-65 0 -121 -3 -124 -7z"/>
<path d="M780 1240 l0 -200 85 0 85 0 0 200 0 200 -85 0 -85 0 0 -200z"/>
<path d="M1622 1243 l3 -198 85 0 85 0 3 198 2 197 -90 0 -90 0 2 -197z"/>
<path d="M1072 1293 l3 -108 73 -3 c95 -4 93 -22 -3 -22 l-75 0 0 -110 0 -111
88 3 87 3 6 95 c4 52 4 155 1 228 l-5 132 -89 0 -89 0 3 -107z m158 25 c0
-118 -1 -118 -81 -118 l-69 0 0 88 c0 49 3 92 7 95 3 4 37 7 75 7 l68 0 0 -72z
m-6 -200 c3 -13 6 -53 6 -90 l0 -68 -75 0 -75 0 0 90 0 90 69 0 c63 0 69 -2
75 -22z"/>
<path d="M1317 1268 c-3 -73 -3 -176 1 -228 l7 -95 85 0 85 0 3 108 3 107 -76
0 c-85 0 -106 19 -22 21 101 2 92 -9 95 112 l3 107 -89 0 -89 0 -6 -132z m163
27 l0 -95 -64 0 -64 0 -11 44 c-12 49 -15 129 -4 139 3 4 37 7 75 7 l68 0 0
-95z m0 -245 l0 -90 -69 0 -70 0 -3 53 c-2 28 1 69 6 90 l8 37 64 0 64 0 0
-90z"/>
</g>
</svg>
