<?xml version="1.0" standalone="no"?>
<!DOCTYPE svg PUBLIC "-//W3C//DTD SVG 20010904//EN"
 "http://www.w3.org/TR/2001/REC-SVG-20010904/DTD/svg10.dtd">
<svg version="1.0" xmlns="http://www.w3.org/2000/svg"
 width="292.000000pt" height="219.000000pt" viewBox="0 0 292.000000 219.000000"
 preserveAspectRatio="xMidYMid meet">
<metadata>
Created by potrace 1.16, written by Peter Selinger 2001-2019
</metadata>
<g transform="translate(0.000000,219.000000) scale(0.100000,-0.100000)"
fill="#000000" stroke="none">
<path d="M1027 1853 c-35 -62 -36 -68 -22 -89 8 -13 15 -26 15 -29 0 -3 -108
-5 -240 -5 l-240 0 0 -84 c0 -65 3 -85 15 -90 13 -5 15 -45 15 -283 l0 -277
-26 -21 c-28 -22 -45 -78 -49 -155 -1 -25 -10 -63 -21 -86 -20 -39 -20 -42 -3
-130 10 -49 18 -95 18 -101 1 -9 -19 -13 -68 -13 -39 0 -73 -4 -76 -10 -4 -7
340 -10 1025 -10 685 0 1029 3 1025 10 -3 6 -52 10 -111 10 -84 0 -104 3 -104
14 0 8 4 18 10 21 13 8 13 62 0 70 -6 4 -10 133 -10 356 0 342 0 349 20 349
22 0 26 -10 9 -27 -5 -5 -9 -34 -7 -64 3 -52 5 -55 45 -77 l41 -23 46 23 46
22 0 58 c0 43 -4 60 -15 64 -27 11 -16 26 13 19 20 -4 33 -1 42 10 25 31 -3
40 -123 40 l-112 0 -3 108 c-2 91 0 107 13 107 12 0 15 15 15 85 l0 85 -240 0
c-132 0 -240 3 -240 8 0 4 7 17 15 29 14 20 13 26 -23 85 l-39 63 -309 2 -309
3 -38 -67z m668 2 c19 -30 35 -59 35 -65 0 -7 -15 -36 -32 -66 l-33 -54 -291
0 -292 0 -35 59 -35 59 36 61 36 61 288 0 288 0 35 -55z m-643 -175 l17 -30
305 0 305 0 18 30 17 30 238 0 238 0 0 -65 0 -65 -74 0 c-53 0 -77 4 -86 15
-11 13 -97 15 -660 15 -567 0 -649 -2 -654 -15 -4 -11 -23 -15 -81 -15 l-75 0
0 65 0 65 238 0 237 0 17 -30z m-16 -117 c-3 -16 -8 -48 -11 -73 -12 -83 -8
-80 -95 -80 l-78 0 8 33 c5 17 14 58 20 90 l11 57 76 0 75 0 -6 -27z m326 -98
c2 -69 -1 -139 -5 -156 -10 -39 -57 -61 -99 -47 -36 13 -48 35 -48 91 l0 44
62 2 c85 2 87 11 3 11 l-68 0 6 68 c4 37 7 77 7 90 0 21 4 22 69 22 l70 0 3
-125z m337 68 c7 -32 14 -94 18 -138 5 -72 3 -83 -17 -107 -40 -51 -124 -29
-134 35 -3 18 -8 85 -11 150 l-6 117 69 0 69 0 12 -57z m343 -28 c15 -44 27
-83 27 -87 1 -5 -28 -8 -64 -8 -36 0 -65 -3 -65 -7 0 -5 30 -8 67 -8 l68 0 1
-35 c1 -41 -18 -85 -41 -94 -32 -12 -69 -6 -92 16 -18 17 -23 32 -23 72 0 28
-9 89 -20 136 -11 47 -20 89 -20 93 0 4 30 7 67 5 l68 -3 27 -80z m-1348 28
c-4 -16 -15 -52 -26 -82 -35 -103 -20 -173 44 -204 41 -20 75 -16 108 15 l21
20 24 -22 c33 -31 97 -31 130 0 23 21 25 22 41 5 41 -40 101 -39 147 2 17 16
19 16 28 1 5 -9 24 -21 43 -28 36 -11 76 -2 107 26 14 13 18 13 28 0 33 -39
106 -40 144 -1 15 15 19 14 47 -7 39 -29 93 -28 126 3 l24 22 25 -23 c33 -31
84 -32 126 -1 31 23 31 23 52 3 31 -27 65 -33 103 -17 62 26 75 99 38 214 -13
42 -24 82 -24 89 0 8 18 12 55 12 50 0 55 -2 55 -22 0 -13 1 -229 3 -480 l2
-458 -431 0 -431 0 6 33 7 32 324 2 c322 3 325 3 343 25 12 14 30 23 50 23
l32 1 0 239 0 240 -452 3 -452 2 -4 -117 c-5 -127 -14 -191 -29 -210 -5 -6 -8
-31 -7 -55 2 -29 -3 -53 -14 -68 -16 -23 -17 -12 -17 213 l0 237 -205 0 -205
0 0 -232 c-1 -206 -2 -231 -15 -214 -10 13 -13 32 -9 56 4 23 1 47 -7 61 -7
13 -14 37 -15 54 -1 18 -12 37 -28 50 l-26 21 0 275 c0 152 3 279 7 282 3 4
30 7 60 7 53 0 53 0 47 -27z m300 -139 c25 -10 21 -77 -7 -110 -50 -58 -137
-17 -137 65 0 21 3 41 7 44 8 9 116 9 137 1z m76 -559 l0 -345 -185 0 -185 0
0 345 0 345 185 0 185 0 0 -345z m980 125 c0 -213 -1 -220 -20 -220 -13 0 -20
7 -20 20 0 13 -7 20 -19 20 -11 0 -23 9 -26 20 -4 13 -15 20 -31 20 -13 0 -29
-9 -36 -20 -7 -11 -18 -20 -24 -20 -7 0 -14 9 -17 20 -3 14 -14 20 -32 20 -18
0 -29 -6 -32 -20 -3 -11 -13 -20 -23 -20 -10 0 -20 9 -23 20 -3 14 -14 20 -32
20 -18 0 -29 -6 -32 -20 -3 -11 -11 -20 -19 -20 -7 0 -18 9 -24 20 -6 12 -21
20 -36 20 -17 0 -28 -7 -31 -20 -3 -11 -10 -20 -17 -20 -6 0 -17 9 -24 20 -7
11 -21 20 -32 20 -11 0 -25 -9 -32 -20 -7 -11 -18 -20 -25 -20 -6 0 -15 9 -18
20 -4 13 -15 20 -32 20 -16 0 -27 -7 -30 -20 -6 -23 -43 -28 -43 -5 0 8 -9 19
-20 25 -11 6 -20 19 -20 30 0 10 -4 22 -10 25 -5 3 -10 21 -10 40 0 40 -22 65
-56 65 -24 0 -24 1 -24 100 l0 100 435 0 435 0 0 -220z m-814 -29 c3 -14 10
-43 16 -63 6 -20 8 -49 5 -65 -3 -17 0 -36 9 -47 31 -44 20 -52 -66 -52 -67 0
-80 2 -80 16 0 9 5 21 12 28 6 6 12 35 14 64 5 102 15 139 38 147 30 12 45 3
52 -28z m-628 -10 c2 -19 10 -44 18 -57 10 -15 13 -34 9 -57 -5 -25 -2 -42 11
-62 14 -22 15 -28 4 -35 -16 -10 -146 -8 -156 3 -4 3 1 18 10 32 12 17 14 36
10 64 -4 28 -1 46 11 64 9 14 14 31 10 36 -12 21 15 52 43 49 23 -2 28 -9 30
-37z m1382 -171 c0 -6 -52 -11 -132 -12 l-133 -2 123 -3 c110 -3 123 -5 120
-21 -3 -16 -29 -17 -328 -17 -298 0 -325 1 -328 17 -3 14 7 18 65 21 l68 3
-77 2 c-44 1 -78 6 -78 12 0 6 123 10 350 10 227 0 350 -4 350 -10z m-1320
-77 c-1 -5 -9 -46 -18 -93 l-18 -85 -59 0 -60 0 -11 45 c-6 25 -14 66 -18 93
l-7 47 95 0 c53 0 96 -3 96 -7z m609 -85 c-10 -51 -19 -94 -19 -95 0 -2 -27
-3 -60 -3 -33 0 -60 1 -60 3 0 1 -9 44 -19 95 l-18 92 97 0 97 0 -18 -92z
m901 -23 c0 -13 -56 -15 -445 -15 -245 0 -445 4 -445 8 0 5 3 12 7 15 3 4 204
7 445 7 383 0 438 -2 438 -15z m-23 -36 c6 -6 9 -18 6 -25 -4 -12 -80 -14
-444 -14 -241 0 -439 3 -439 6 0 3 5 14 10 25 10 18 26 19 433 19 299 0 426
-3 434 -11z"/>
<path d="M1177 1844 c-4 -4 -7 -16 -7 -26 0 -17 13 -18 206 -18 l205 0 -3 23
c-3 22 -4 22 -199 25 -107 1 -198 -1 -202 -4z"/>
<path d="M734 1137 c-2 -7 -3 -74 -2 -148 l3 -134 133 -3 c120 -2 133 -4 130
-20 -3 -15 -20 -17 -136 -20 l-132 -3 0 -144 0 -145 155 0 155 0 0 94 c0 53 4
98 10 101 6 3 10 48 10 100 0 52 -4 97 -10 100 -6 4 -10 55 -10 121 l0 114
-150 0 c-114 0 -152 -3 -156 -13z m296 -112 c0 -85 -3 -107 -15 -111 -8 -4
-15 -15 -15 -25 0 -18 -9 -19 -125 -19 l-125 0 0 130 0 130 140 0 140 0 0
-105z m-30 -270 c0 -34 4 -45 15 -45 13 0 15 -14 13 -87 l-3 -88 -137 -3 -138
-3 0 136 0 135 125 0 125 0 0 -45z"/>
</g>
</svg>
