<?xml version="1.0" standalone="no"?>
<!DOCTYPE svg PUBLIC "-//W3C//DTD SVG 20010904//EN"
 "http://www.w3.org/TR/2001/REC-SVG-20010904/DTD/svg10.dtd">
<svg version="1.0" xmlns="http://www.w3.org/2000/svg"
 width="235.000000pt" height="176.000000pt" viewBox="0 0 235.000000 176.000000"
 preserveAspectRatio="xMidYMid meet">
<metadata>
Created by potrace 1.16, written by Peter Selinger 2001-2019
</metadata>
<g transform="translate(0.000000,176.000000) scale(0.100000,-0.100000)"
fill="#000000" stroke="none">
<path d="M555 1458 c-3 -7 -20 -56 -40 -108 -49 -133 -44 -216 15 -257 18 -13
20 -26 20 -159 l0 -144 -35 0 c-33 0 -35 -2 -35 -35 0 -32 -2 -35 -30 -35 -22
0 -33 -6 -39 -22 -57 -142 -61 -159 -61 -248 l0 -90 -130 0 c-80 0 -130 -4
-130 -10 0 -7 342 -10 1006 -10 667 0 1003 3 999 10 -4 6 -65 10 -149 10
l-143 0 20 58 c24 70 19 177 -12 246 -19 44 -22 46 -60 46 l-41 0 0 40 c0 39
-1 40 -35 40 -33 0 -35 2 -35 35 0 34 1 35 40 35 l40 0 0 80 0 80 -40 0 c-37
0 -40 2 -40 27 0 17 12 39 32 60 27 28 32 42 36 90 3 49 -3 74 -37 163 l-40
105 -536 3 c-423 2 -537 0 -540 -10z m362 -30 c-3 -13 -11 -53 -18 -90 l-12
-68 -89 0 c-54 0 -88 4 -88 10 0 10 27 129 36 158 2 8 29 12 90 12 84 0 86 0
81 -22z m353 -84 c29 -137 24 -188 -20 -227 -26 -24 -38 -28 -64 -23 -17 4
-42 18 -56 31 -24 24 -25 32 -28 161 -2 74 -1 142 2 150 4 10 24 14 74 14 l69
0 23 -106z m375 29 c16 -43 30 -84 33 -90 3 -10 -15 -13 -72 -13 -44 0 -76 -4
-76 -10 0 -6 33 -10 80 -10 l80 0 0 -40 c0 -53 -22 -94 -58 -109 -65 -27 -122
19 -122 100 0 26 -9 85 -20 131 -30 124 -32 118 54 118 l73 0 28 -77z m-765
-176 c0 -61 -23 -92 -77 -103 -25 -5 -37 0 -63 23 -27 24 -33 38 -38 81 l-5
52 92 0 91 0 0 -53z m-88 -117 c34 0 54 6 75 24 l28 24 28 -24 c20 -17 40 -24
72 -24 32 0 52 7 72 24 l28 24 28 -24 c40 -34 105 -33 145 1 20 17 33 22 37
14 4 -6 21 -19 39 -30 l31 -19 -68 0 -68 0 7 -70 7 -70 -32 0 -31 0 0 -70 0
-70 -64 0 -63 0 5 49 4 50 -53 3 c-53 3 -54 4 -57 36 -2 19 -9 32 -17 32 -8 0
-15 13 -17 33 -3 31 -5 32 -48 32 -43 0 -45 -1 -48 -32 -2 -25 -8 -33 -23 -33
-15 0 -19 -7 -19 -35 l0 -35 -56 0 -57 0 7 -50 7 -50 -36 0 -35 0 0 144 c0
132 2 145 19 151 10 3 26 14 36 25 18 20 19 20 45 -5 20 -19 37 -25 72 -25z
m769 0 c5 0 9 -13 9 -29 0 -28 -2 -30 -47 -33 l-48 -3 -3 -77 -3 -78 51 0 50
0 0 -35 0 -35 -71 0 -72 0 7 70 6 70 -30 0 -30 0 2 75 c3 71 4 75 26 75 28 0
64 18 75 37 7 11 14 9 38 -12 17 -14 35 -25 40 -25z m-471 -515 l0 -205 -45 0
-45 0 0 205 0 205 45 0 45 0 0 -205z m100 0 l0 -205 -45 0 -45 0 0 205 0 205
45 0 45 0 0 -205z m100 0 l0 -205 -45 0 -45 0 0 205 0 205 45 0 45 0 0 -205z
m100 0 l0 -205 -45 0 -45 0 0 205 0 205 45 0 45 0 0 -205z m100 0 l0 -205 -45
0 -45 0 0 205 0 205 45 0 45 0 0 -205z m100 175 c0 -19 -5 -30 -14 -30 -18 0
-45 -78 -52 -150 -6 -50 3 -117 21 -177 6 -20 4 -23 -19 -23 l-26 0 0 205 0
205 45 0 c43 0 45 -1 45 -30z m-646 -111 c14 -38 26 -74 26 -80 0 -5 -117 -9
-296 -9 l-296 0 6 25 c4 14 16 50 27 80 l20 55 244 0 243 0 26 -71z m874 -88
c2 -19 1 -44 -2 -57 -6 -24 -8 -24 -136 -24 l-129 0 -7 35 c-3 19 -3 46 0 60
l7 26 132 -3 132 -3 3 -34z m-838 -101 l0 -80 -305 0 -305 0 0 80 0 80 305 0
305 0 0 -80z"/>
<path d="M423 620 l-22 -60 270 0 c191 0 269 3 269 11 0 6 -8 33 -17 60 l-18
49 -230 0 -230 0 -22 -60z m488 -2 l19 -48 -255 0 c-140 0 -255 2 -255 4 0 2
9 25 20 50 l19 46 217 -2 216 -3 19 -47z"/>
</g>
</svg>
